<svg xmlns="http://www.w3.org/2000/svg" viewBox="0 0 800 600" style="display:none;">
  <!-- Rabbit -->
  <symbol id="rabbit" viewBox="0 0 100 100">
    <ellipse cx="50" cy="65" rx="25" ry="30" />
    <ellipse cx="35" cy="30" rx="10" ry="25" transform="rotate(-20, 35, 30)" />
    <ellipse cx="65" cy="30" rx="10" ry="25" transform="rotate(20, 65, 30)" />
    <circle cx="40" cy="60" r="3" fill="black" />
    <circle cx="60" cy="60" r="3" fill="black" />
    <ellipse cx="50" cy="68" rx="6" ry="4" />
    <circle cx="50" cy="85" r="5" fill="white" />
  </symbol>
  
  <!-- Fox -->
  <symbol id="fox" viewBox="0 0 100 100">
    <path d="M50,20 L30,50 L20,90 L50,75 L80,90 L70,50 Z" />
    <polygon points="30,50 20,20 40,40" />
    <polygon points="70,50 80,20 60,40" />
    <circle cx="40" cy="60" r="3" fill="black" />
    <circle cx="60" cy="60" r="3" fill="black" />
    <path d="M45,70 Q50,75 55,70" stroke="black" strokeWidth="2" fill="none" />
  </symbol>
  
  <!-- Bear -->
  <symbol id="bear" viewBox="0 0 100 100">
    <circle cx="50" cy="60" r="30" />
    <circle cx="25" cy="35" r="12" />
    <circle cx="75" cy="35" r="12" />
    <circle cx="40" cy="55" r="3" fill="black" />
    <circle cx="60" cy="55" r="3" fill="black" />
    <ellipse cx="50" cy="65" rx="8" ry="5" />
    <ellipse cx="50" cy="77" rx="5" ry="3" fill="black" />
  </symbol>
  
  <!-- Owl -->
  <symbol id="owl" viewBox="0 0 100 100">
    <circle cx="50" cy="50" r="30" />
    <circle cx="35" cy="40" r="10" fill="white" />
    <circle cx="65" cy="40" r="10" fill="white" />
    <circle cx="35" cy="40" r="5" fill="black" />
    <circle cx="65" cy="40" r="5" fill="black" />
    <path d="M40,60 Q50,70 60,60" fill="orange" />
    <path d="M30,25 L40,35" stroke="black" strokeWidth="2" />
    <path d="M70,25 L60,35" stroke="black" strokeWidth="2" />
  </symbol>
  
  <!-- Default Animal -->
  <symbol id="default" viewBox="0 0 100 100">
    <circle cx="50" cy="50" r="35" />
    <circle cx="35" cy="40" r="5" fill="black" />
    <circle cx="65" cy="40" r="5" fill="black" />
    <path d="M40,65 Q50,75 60,65" stroke="black" strokeWidth="2" fill="none" />
  </symbol>
</svg>
